<svg width="996" height="218" viewBox="0 0 996 218" fill="none" xmlns="http://www.w3.org/2000/svg">
<mask id="path-1-outside-1_107_308" maskUnits="userSpaceOnUse" x="-2" y="-1" width="999" height="220" fill="black">
<rect fill="white" x="-2" y="-1" width="999" height="220"/>
<path d="M0.3 214L93.9 3.99999H141.9L235.8 214H184.8L108 28.6H127.2L50.1 214H0.3ZM47.1 169L60 132.1H168L181.2 169H47.1ZM319.458 216.4C306.058 216.4 294.058 213.8 283.458 208.6C273.058 203.4 264.958 195.5 259.158 184.9C253.358 174.1 250.458 160.4 250.458 143.8V52.6H297.258V136.9C297.258 150.3 300.058 160.2 305.658 166.6C311.458 172.8 319.558 175.9 329.958 175.9C337.158 175.9 343.558 174.4 349.158 171.4C354.758 168.2 359.158 163.4 362.358 157C365.558 150.4 367.158 142.2 367.158 132.4V52.6H413.958V214H369.558V169.6L377.658 182.5C372.258 193.7 364.258 202.2 353.658 208C343.258 213.6 331.858 216.4 319.458 216.4ZM562.615 217.6C546.015 217.6 530.615 214.9 516.415 209.5C502.415 204.1 490.215 196.5 479.815 186.7C469.615 176.9 461.615 165.4 455.815 152.2C450.215 139 447.415 124.6 447.415 109C447.415 93.4 450.215 79 455.815 65.8C461.615 52.6 469.715 41.1 480.115 31.3C490.515 21.5 502.715 13.9 516.715 8.49998C530.715 3.09999 545.915 0.399996 562.315 0.399996C578.915 0.399996 594.115 3.09999 607.915 8.49998C621.915 13.9 634.015 21.5 644.215 31.3C654.615 41.1 662.715 52.6 668.515 65.8C674.315 78.8 677.215 93.2 677.215 109C677.215 124.6 674.315 139.1 668.515 152.5C662.715 165.7 654.615 177.2 644.215 187C634.015 196.6 621.915 204.1 607.915 209.5C594.115 214.9 579.015 217.6 562.615 217.6ZM562.315 176.2C571.715 176.2 580.315 174.6 588.115 171.4C596.115 168.2 603.115 163.6 609.115 157.6C615.115 151.6 619.715 144.5 622.915 136.3C626.315 128.1 628.015 119 628.015 109C628.015 99 626.315 89.9 622.915 81.7C619.715 73.5 615.115 66.4 609.115 60.4C603.315 54.4 596.415 49.8 588.415 46.6C580.415 43.4 571.715 41.8 562.315 41.8C552.915 41.8 544.215 43.4 536.215 46.6C528.415 49.8 521.515 54.4 515.515 60.4C509.515 66.4 504.815 73.5 501.415 81.7C498.215 89.9 496.615 99 496.615 109C496.615 118.8 498.215 127.9 501.415 136.3C504.815 144.5 509.415 151.6 515.215 157.6C521.215 163.6 528.215 168.2 536.215 171.4C544.215 174.6 552.915 176.2 562.315 176.2ZM710.44 214V52.6H755.14V98.2L748.84 85C753.64 73.6 761.34 65 771.94 59.2C782.54 53.2 795.44 50.2 810.64 50.2V93.4C808.64 93.2 806.84 93.1 805.24 93.1C803.64 92.9 801.94 92.8 800.14 92.8C787.34 92.8 776.94 96.5 768.94 103.9C761.14 111.1 757.24 122.4 757.24 137.8V214H710.44ZM917.395 216.4C898.995 216.4 882.795 212.8 868.795 205.6C854.995 198.4 844.295 188.6 836.695 176.2C829.095 163.6 825.295 149.3 825.295 133.3C825.295 117.1 828.995 102.8 836.395 90.4C843.995 77.8 854.295 68 867.295 61C880.295 53.8 894.995 50.2 911.395 50.2C927.195 50.2 941.395 53.6 953.995 60.4C966.795 67 976.895 76.6 984.295 89.2C991.695 101.6 995.395 116.5 995.395 133.9C995.395 135.7 995.295 137.8 995.095 140.2C994.895 142.4 994.695 144.5 994.495 146.5H863.395V119.2H969.895L951.895 127.3C951.895 118.9 950.195 111.6 946.795 105.4C943.395 99.2 938.695 94.4 932.695 91C926.695 87.4 919.695 85.6 911.695 85.6C903.695 85.6 896.595 87.4 890.395 91C884.395 94.4 879.695 99.3 876.295 105.7C872.895 111.9 871.195 119.3 871.195 127.9V135.1C871.195 143.9 873.095 151.7 876.895 158.5C880.895 165.1 886.395 170.2 893.395 173.8C900.595 177.2 908.995 178.9 918.595 178.9C927.195 178.9 934.695 177.6 941.095 175C947.695 172.4 953.695 168.5 959.095 163.3L983.995 190.3C976.595 198.7 967.295 205.2 956.095 209.8C944.895 214.2 931.995 216.4 917.395 216.4Z"/>
</mask>
<path d="M0.3 214L-0.613381 213.593L-1.24055 215H0.3V214ZM93.9 3.99999V2.99999H93.2509L92.9866 3.59288L93.9 3.99999ZM141.9 3.99999L142.813 3.59179L142.548 2.99999H141.9V3.99999ZM235.8 214V215H237.343L236.713 213.592L235.8 214ZM184.8 214L183.876 214.383L184.132 215H184.8V214ZM108 28.6V27.6H106.503L107.076 28.9827L108 28.6ZM127.2 28.6L128.123 28.984L128.699 27.6H127.2V28.6ZM50.1 214V215H50.7672L51.0233 214.384L50.1 214ZM47.1 169L46.156 168.67L45.6911 170H47.1V169ZM60 132.1V131.1H59.2903L59.056 131.77L60 132.1ZM168 132.1L168.942 131.763L168.704 131.1H168V132.1ZM181.2 169V170H182.62L182.142 168.663L181.2 169ZM1.21338 214.407L94.8134 4.40709L92.9866 3.59288L-0.613381 213.593L1.21338 214.407ZM93.9 4.99999H141.9V2.99999H93.9V4.99999ZM140.987 4.40818L234.887 214.408L236.713 213.592L142.813 3.59179L140.987 4.40818ZM235.8 213H184.8V215H235.8V213ZM185.724 213.617L108.924 28.2173L107.076 28.9827L183.876 214.383L185.724 213.617ZM108 29.6H127.2V27.6H108V29.6ZM126.277 28.216L49.1767 213.616L51.0233 214.384L128.123 28.984L126.277 28.216ZM50.1 213H0.3V215H50.1V213ZM48.044 169.33L60.944 132.43L59.056 131.77L46.156 168.67L48.044 169.33ZM60 133.1H168V131.1H60V133.1ZM167.058 132.437L180.258 169.337L182.142 168.663L168.942 131.763L167.058 132.437ZM181.2 168H47.1V170H181.2V168ZM283.458 208.6L283.011 209.494L283.017 209.498L283.458 208.6ZM259.158 184.9L258.277 185.373L258.281 185.38L259.158 184.9ZM250.458 52.6V51.6H249.458V52.6H250.458ZM297.258 52.6H298.258V51.6H297.258V52.6ZM305.658 166.6L304.905 167.259L304.916 167.271L304.928 167.283L305.658 166.6ZM349.158 171.4L349.63 172.281L349.642 172.275L349.654 172.268L349.158 171.4ZM362.358 157L363.252 157.447L363.258 157.436L362.358 157ZM367.158 52.6V51.6H366.158V52.6H367.158ZM413.958 52.6H414.958V51.6H413.958V52.6ZM413.958 214V215H414.958V214H413.958ZM369.558 214H368.558V215H369.558V214ZM369.558 169.6L370.405 169.068L368.558 166.127V169.6H369.558ZM377.658 182.5L378.559 182.934L378.799 182.436L378.505 181.968L377.658 182.5ZM353.658 208L354.132 208.88L354.138 208.877L353.658 208ZM319.458 215.4C306.19 215.4 294.344 212.826 283.898 207.702L283.017 209.498C293.772 214.774 305.926 217.4 319.458 217.4V215.4ZM283.905 207.706C273.695 202.6 265.741 194.849 260.035 184.42L258.281 185.38C264.174 196.151 272.421 204.2 283.011 209.494L283.905 207.706ZM260.039 184.427C254.34 173.815 251.458 160.291 251.458 143.8H249.458C249.458 160.509 252.376 174.385 258.277 185.373L260.039 184.427ZM251.458 143.8V52.6H249.458V143.8H251.458ZM250.458 53.6H297.258V51.6H250.458V53.6ZM296.258 52.6V136.9H298.258V52.6H296.258ZM296.258 136.9C296.258 150.41 299.076 160.597 304.905 167.259L306.41 165.941C301.04 159.803 298.258 150.19 298.258 136.9H296.258ZM304.928 167.283C310.958 173.729 319.348 176.9 329.958 176.9V174.9C319.768 174.9 311.958 171.871 306.388 165.917L304.928 167.283ZM329.958 176.9C337.3 176.9 343.866 175.369 349.63 172.281L348.686 170.519C343.249 173.431 337.015 174.9 329.958 174.9V176.9ZM349.654 172.268C355.444 168.96 359.974 164.004 363.252 157.447L361.463 156.553C358.342 162.796 354.072 167.44 348.662 170.532L349.654 172.268ZM363.258 157.436C366.542 150.663 368.158 142.303 368.158 132.4H366.158C366.158 142.097 364.574 150.137 361.458 156.564L363.258 157.436ZM368.158 132.4V52.6H366.158V132.4H368.158ZM367.158 53.6H413.958V51.6H367.158V53.6ZM412.958 52.6V214H414.958V52.6H412.958ZM413.958 213H369.558V215H413.958V213ZM370.558 214V169.6H368.558V214H370.558ZM368.711 170.132L376.811 183.032L378.505 181.968L370.405 169.068L368.711 170.132ZM376.757 182.066C371.445 193.084 363.589 201.426 353.178 207.123L354.138 208.877C364.926 202.974 373.071 194.316 378.559 182.934L376.757 182.066ZM353.184 207.12C342.937 212.637 331.701 215.4 319.458 215.4V217.4C332.015 217.4 343.579 214.563 354.132 208.88L353.184 207.12ZM516.415 209.5L516.055 210.433L516.059 210.435L516.415 209.5ZM479.815 186.7L479.122 187.421L479.129 187.428L479.815 186.7ZM455.815 152.2L454.894 152.591L454.899 152.602L455.815 152.2ZM455.815 65.8L454.899 65.3977L454.894 65.4094L455.815 65.8ZM516.715 8.49998L516.355 7.56698L516.355 7.56698L516.715 8.49998ZM607.915 8.49998L607.55 9.43124L607.555 9.43298L607.915 8.49998ZM644.215 31.3L643.522 32.0211L643.529 32.0278L644.215 31.3ZM668.515 65.8L667.599 66.2023L667.602 66.2074L668.515 65.8ZM668.515 152.5L669.43 152.902L669.433 152.897L668.515 152.5ZM644.215 187L644.9 187.728L644.901 187.728L644.215 187ZM607.915 209.5L607.555 208.567L607.55 208.569L607.915 209.5ZM588.115 171.4L587.743 170.471L587.735 170.475L588.115 171.4ZM609.115 157.6L608.408 156.893L608.408 156.893L609.115 157.6ZM622.915 136.3L621.991 135.917L621.987 135.927L621.983 135.936L622.915 136.3ZM622.915 81.7L621.983 82.0635L621.987 82.0733L621.991 82.083L622.915 81.7ZM609.115 60.4L608.396 61.095L608.402 61.1011L608.408 61.1071L609.115 60.4ZM588.415 46.6L588.043 47.5285L588.043 47.5285L588.415 46.6ZM536.215 46.6L535.843 45.6715L535.835 45.6748L536.215 46.6ZM515.515 60.4L516.222 61.1071L516.222 61.1071L515.515 60.4ZM501.415 81.7L500.491 81.317L500.487 81.3267L500.483 81.3365L501.415 81.7ZM501.415 136.3L500.48 136.656L500.486 136.67L500.491 136.683L501.415 136.3ZM515.215 157.6L514.496 158.295L514.502 158.301L514.508 158.307L515.215 157.6ZM536.215 171.4L535.843 172.328L535.843 172.328L536.215 171.4ZM562.615 216.6C546.125 216.6 530.847 213.918 516.77 208.565L516.059 210.435C530.383 215.882 545.905 218.6 562.615 218.6V216.6ZM516.775 208.567C502.889 203.211 490.802 195.679 480.501 185.972L479.129 187.428C489.628 197.321 501.94 204.989 516.055 210.433L516.775 208.567ZM480.508 185.979C470.404 176.271 462.479 164.88 456.73 151.798L454.899 152.602C460.751 165.92 468.826 177.529 479.122 187.421L480.508 185.979ZM456.735 151.809C451.192 138.743 448.415 124.478 448.415 109H446.415C446.415 124.722 449.237 139.257 454.894 152.591L456.735 151.809ZM448.415 109C448.415 93.5223 451.192 79.2565 456.735 66.1905L454.894 65.4094C449.237 78.7435 446.415 93.2777 446.415 109H448.415ZM456.73 66.2023C462.477 53.124 470.499 41.7349 480.801 32.0278L479.429 30.5722C468.931 40.4651 460.753 52.076 454.899 65.3977L456.73 66.2023ZM480.801 32.0278C491.102 22.3211 503.189 14.7887 517.075 9.43298L516.355 7.56698C502.24 13.0112 489.928 20.6789 479.429 30.5722L480.801 32.0278ZM517.075 9.43298C530.95 4.08122 546.026 1.4 562.315 1.4V-0.600004C545.803 -0.600004 530.48 2.11876 516.355 7.56698L517.075 9.43298ZM562.315 1.4C578.805 1.4 593.88 4.08181 607.55 9.43122L608.279 7.56874C594.35 2.11817 579.025 -0.600004 562.315 -0.600004V1.4ZM607.555 9.43298C621.439 14.7881 633.424 22.3187 643.522 32.0211L644.908 30.5789C634.606 20.6813 622.391 13.0118 608.275 7.56698L607.555 9.43298ZM643.529 32.0278C653.831 41.7349 661.853 53.124 667.599 66.2023L669.43 65.3977C663.577 52.076 655.399 40.4651 644.901 30.5722L643.529 32.0278ZM667.602 66.2074C673.338 79.0658 676.215 93.3249 676.215 109H678.215C678.215 93.0751 675.291 78.5342 669.428 65.3926L667.602 66.2074ZM676.215 109C676.215 124.473 673.339 138.837 667.597 152.103L669.433 152.897C675.291 139.363 678.215 124.727 678.215 109H676.215ZM667.599 152.098C661.853 165.176 653.831 176.565 643.529 186.272L644.901 187.728C655.399 177.835 663.577 166.224 669.43 152.902L667.599 152.098ZM643.529 186.272C633.43 195.777 621.443 203.21 607.555 208.567L608.275 210.433C622.387 204.99 634.599 197.423 644.9 187.728L643.529 186.272ZM607.55 208.569C593.878 213.919 578.903 216.6 562.615 216.6V218.6C579.126 218.6 594.351 215.881 608.279 210.431L607.55 208.569ZM562.315 177.2C571.83 177.2 580.561 175.58 588.494 172.325L587.735 170.475C580.069 173.62 571.6 175.2 562.315 175.2V177.2ZM588.486 172.328C596.61 169.079 603.725 164.404 609.822 158.307L608.408 156.893C602.505 162.796 595.62 167.321 587.743 170.472L588.486 172.328ZM609.822 158.307C615.923 152.206 620.598 144.987 623.846 136.664L621.983 135.936C618.832 144.013 614.306 150.994 608.408 156.893L609.822 158.307ZM623.839 136.683C627.295 128.347 629.015 119.115 629.015 109H627.015C627.015 118.885 625.335 127.853 621.991 135.917L623.839 136.683ZM629.015 109C629.015 98.8851 627.295 89.6528 623.839 81.317L621.991 82.083C625.335 90.1472 627.015 99.1149 627.015 109H629.015ZM623.846 81.3365C620.598 73.0126 615.923 65.7943 609.822 59.6929L608.408 61.1071C614.306 67.0057 618.832 73.9874 621.983 82.0635L623.846 81.3365ZM609.834 59.705C603.933 53.6002 596.913 48.9222 588.786 45.6715L588.043 47.5285C595.917 50.6778 602.697 55.1998 608.396 61.095L609.834 59.705ZM588.786 45.6715C580.658 42.4201 571.83 40.8 562.315 40.8V42.8C571.599 42.8 580.172 44.3799 588.043 47.5285L588.786 45.6715ZM562.315 40.8C552.799 40.8 543.972 42.4201 535.843 45.6715L536.586 47.5285C544.458 44.3799 553.03 42.8 562.315 42.8V40.8ZM535.835 45.6748C527.912 48.9254 520.901 53.5998 514.808 59.6929L516.222 61.1071C522.129 55.2001 528.918 50.6745 536.594 47.5252L535.835 45.6748ZM514.808 59.6929C508.711 65.7899 503.939 73.0015 500.491 81.317L502.339 82.083C505.691 73.9985 510.319 67.0101 516.222 61.1071L514.808 59.6929ZM500.483 81.3365C497.232 89.667 495.615 98.8924 495.615 109H497.615C497.615 99.1076 499.197 90.133 502.346 82.0635L500.483 81.3365ZM495.615 109C495.615 118.911 497.233 128.132 500.48 136.656L502.349 135.944C499.196 127.668 497.615 118.689 497.615 109H495.615ZM500.491 136.683C503.936 144.991 508.603 152.199 514.496 158.295L515.934 156.905C510.227 151.001 505.694 144.009 502.339 135.917L500.491 136.683ZM514.508 158.307C520.605 164.404 527.72 169.079 535.843 172.328L536.586 170.472C528.71 167.321 521.825 162.796 515.922 156.893L514.508 158.307ZM535.843 172.328C543.972 175.58 552.799 177.2 562.315 177.2V175.2C553.03 175.2 544.458 173.62 536.586 170.472L535.843 172.328ZM710.44 214H709.44V215H710.44V214ZM710.44 52.6V51.6H709.44V52.6H710.44ZM755.14 52.6H756.14V51.6H755.14V52.6ZM755.14 98.2L754.237 98.6307L756.14 98.2H755.14ZM748.84 85L747.918 84.6119L747.744 85.0256L747.937 85.4307L748.84 85ZM771.94 59.2L772.42 60.0773L772.426 60.0738L772.432 60.0702L771.94 59.2ZM810.64 50.2H811.64V49.2H810.64V50.2ZM810.64 93.4L810.54 94.395L811.64 94.505V93.4H810.64ZM805.24 93.1L805.116 94.0923L805.178 94.1H805.24V93.1ZM768.94 103.9L769.618 104.635L769.619 104.634L768.94 103.9ZM757.24 214V215H758.24V214H757.24ZM711.44 214V52.6H709.44V214H711.44ZM710.44 53.6H755.14V51.6H710.44V53.6ZM754.14 52.6V98.2H756.14V52.6H754.14ZM756.042 97.7693L749.742 84.5693L747.937 85.4307L754.237 98.6307L756.042 97.7693ZM749.761 85.3881C754.476 74.191 762.023 65.766 772.42 60.0773L771.46 58.3227C760.657 64.234 752.804 73.009 747.918 84.6119L749.761 85.3881ZM772.432 60.0702C782.849 54.1739 795.57 51.2 810.64 51.2V49.2C795.309 49.2 782.23 52.2261 771.447 58.3297L772.432 60.0702ZM809.64 50.2V93.4H811.64V50.2H809.64ZM810.739 92.405C808.714 92.2024 806.88 92.1 805.24 92.1V94.1C806.799 94.1 808.565 94.1975 810.54 94.395L810.739 92.405ZM805.364 92.1077C803.718 91.902 801.977 91.8 800.14 91.8V93.8C801.903 93.8 803.561 93.898 805.116 94.0923L805.364 92.1077ZM800.14 91.8C787.135 91.8 776.477 95.5656 768.261 103.166L769.619 104.634C777.402 97.4344 787.545 93.8 800.14 93.8V91.8ZM768.262 103.165C760.179 110.626 756.24 122.248 756.24 137.8H758.24C758.24 122.552 762.101 111.574 769.618 104.635L768.262 103.165ZM756.24 137.8V214H758.24V137.8H756.24ZM757.24 213H710.44V215H757.24V213ZM868.795 205.6L868.333 206.487L868.338 206.489L868.795 205.6ZM836.695 176.2L835.839 176.717L835.843 176.723L836.695 176.2ZM836.395 90.4L835.539 89.8835L835.537 89.8875L836.395 90.4ZM867.295 61L867.769 61.8805L867.78 61.8748L867.295 61ZM953.995 60.4L953.52 61.28L953.529 61.2845L953.537 61.2888L953.995 60.4ZM984.295 89.2L983.433 89.7064L983.437 89.7125L984.295 89.2ZM995.095 140.2L996.091 140.291L996.092 140.283L995.095 140.2ZM994.495 146.5V147.5H995.4L995.49 146.599L994.495 146.5ZM863.395 146.5H862.395V147.5H863.395V146.5ZM863.395 119.2V118.2H862.395V119.2H863.395ZM969.895 119.2L970.306 120.112L969.895 118.2V119.2ZM951.895 127.3H950.895V128.847L952.306 128.212L951.895 127.3ZM946.795 105.4L945.919 105.881L945.919 105.881L946.795 105.4ZM932.695 91L932.181 91.8575L932.191 91.8639L932.202 91.87L932.695 91ZM890.395 91L890.888 91.8701L890.897 91.8648L890.395 91ZM876.295 105.7L877.172 106.181L877.178 106.169L876.295 105.7ZM876.895 158.5L876.022 158.988L876.031 159.003L876.04 159.018L876.895 158.5ZM893.395 173.8L892.938 174.689L892.953 174.697L892.968 174.704L893.395 173.8ZM941.095 175L940.729 174.07L940.719 174.074L941.095 175ZM959.095 163.3L959.83 162.622L959.138 161.871L958.402 162.58L959.095 163.3ZM983.995 190.3L984.746 190.961L985.342 190.285L984.73 189.622L983.995 190.3ZM956.095 209.8L956.461 210.731L956.468 210.728L956.475 210.725L956.095 209.8ZM917.395 215.4C899.128 215.4 883.089 211.827 869.253 204.711L868.338 206.489C882.502 213.773 898.863 217.4 917.395 217.4V215.4ZM869.258 204.713C855.607 197.591 845.047 187.912 837.548 175.677L835.843 176.723C843.544 189.288 854.384 199.209 868.333 206.487L869.258 204.713ZM837.552 175.684C830.054 163.253 826.295 149.134 826.295 133.3H824.295C824.295 149.466 828.137 163.947 835.839 176.716L837.552 175.684ZM826.295 133.3C826.295 117.258 829.957 103.139 837.254 90.9124L835.537 89.8875C828.033 102.461 824.295 116.942 824.295 133.3H826.295ZM837.252 90.9165C844.759 78.4704 854.927 68.7959 867.769 61.8805L866.821 60.1195C853.664 67.2041 843.232 77.1296 835.539 89.8835L837.252 90.9165ZM867.78 61.8748C880.617 54.7652 895.147 51.2 911.395 51.2V49.2C894.844 49.2 879.974 52.8348 866.811 60.1252L867.78 61.8748ZM911.395 51.2C927.047 51.2 941.081 54.5667 953.52 61.28L954.47 59.52C941.71 52.6333 927.344 49.2 911.395 49.2V51.2ZM953.537 61.2888C966.166 67.8008 976.127 77.267 983.433 89.7064L985.158 88.6936C977.663 75.933 967.424 66.1992 954.454 59.5112L953.537 61.2888ZM983.437 89.7125C990.727 101.928 994.395 116.643 994.395 133.9H996.395C996.395 116.357 992.664 101.271 985.154 88.6875L983.437 89.7125ZM994.395 133.9C994.395 135.665 994.297 137.736 994.099 140.117L996.092 140.283C996.293 137.864 996.395 135.735 996.395 133.9H994.395ZM994.099 140.109C993.9 142.307 993.7 144.404 993.5 146.4L995.49 146.599C995.691 144.596 995.891 142.493 996.091 140.291L994.099 140.109ZM994.495 145.5H863.395V147.5H994.495V145.5ZM864.395 146.5V119.2H862.395V146.5H864.395ZM863.395 120.2H969.895V118.2H863.395V120.2ZM969.485 118.288L951.485 126.388L952.306 128.212L970.306 120.112L969.485 118.288ZM952.895 127.3C952.895 118.763 951.167 111.292 947.672 104.919L945.919 105.881C949.224 111.908 950.895 119.036 950.895 127.3H952.895ZM947.672 104.919C944.185 98.5607 939.354 93.624 933.188 90.13L932.202 91.87C938.036 95.176 942.605 99.8393 945.919 105.881L947.672 104.919ZM933.21 90.1425C927.033 86.4365 919.85 84.6 911.695 84.6V86.6C919.541 86.6 926.357 88.3635 932.181 91.8575L933.21 90.1425ZM911.695 84.6C903.54 84.6 896.263 86.4367 889.893 90.1352L890.897 91.8648C896.928 88.3633 903.851 86.6 911.695 86.6V84.6ZM889.902 90.13C883.728 93.6287 878.897 98.6718 875.412 105.231L877.178 106.169C880.494 99.9282 885.062 95.1713 890.888 91.87L889.902 90.13ZM875.419 105.219C871.922 111.595 870.195 119.168 870.195 127.9H872.195C872.195 119.432 873.869 112.205 877.172 106.181L875.419 105.219ZM870.195 127.9V135.1H872.195V127.9H870.195ZM870.195 135.1C870.195 144.048 872.129 152.02 876.022 158.988L877.768 158.012C874.062 151.38 872.195 143.752 872.195 135.1H870.195ZM876.04 159.018C880.138 165.78 885.777 171.007 892.938 174.689L893.853 172.911C887.014 169.393 881.653 164.42 877.751 157.982L876.04 159.018ZM892.968 174.704C900.326 178.179 908.878 179.9 918.595 179.9V177.9C909.113 177.9 900.864 176.221 893.822 172.896L892.968 174.704ZM918.595 179.9C927.294 179.9 934.927 178.585 941.472 175.926L940.719 174.074C934.464 176.615 927.097 177.9 918.595 177.9V179.9ZM941.462 175.93C948.19 173.28 954.3 169.306 959.789 164.02L958.402 162.58C953.09 167.694 947.2 171.52 940.729 174.07L941.462 175.93ZM958.36 163.978L983.26 190.978L984.73 189.622L959.83 162.622L958.36 163.978ZM983.245 189.639C975.955 197.914 966.785 204.328 955.715 208.875L956.475 210.725C967.806 206.072 977.236 199.486 984.746 190.961L983.245 189.639ZM955.73 208.869C944.668 213.215 931.896 215.4 917.395 215.4V217.4C932.095 217.4 945.123 215.185 956.461 210.731L955.73 208.869Z" fill="white" mask="url(#path-1-outside-1_107_308)"/>
</svg>
